<svg id="Layer_1" data-name="Layer 1" xmlns="http://www.w3.org/2000/svg" viewBox="0 0 471.51 73"><defs><style>.cls-1{fill:#d8e3ff;}.cls-2{fill:#504b8e;}</style></defs><circle class="cls-1" cx="52.11" cy="36.5" r="36.5"/><path class="cls-2" d="M13,20.54a13.32,13.32,0,0,1,6.49,2.13A12.93,12.93,0,0,1,21,23.88a14,14,0,0,1,1.31,1.48c.36.47.7.93,1,1.42a104.57,104.57,0,0,1,16.35,2.35A87.34,87.34,0,0,1,50.83,32.5a44.46,44.46,0,0,1,9.46,5A54.85,54.85,0,0,0,36.7,22.36,49.76,49.76,0,0,0,11,20.51C11.63,20.49,12.32,20.5,13,20.54Z" transform="translate(-10.96 -8.5)"/><path class="cls-2" d="M39.2,32.33c-3.68-.9-7.41-1.52-11.15-2.06-.9-.14-1.81-.27-2.71-.37a60.94,60.94,0,0,1,3,5.52c.19.39.37.78.56,1.18a101.12,101.12,0,0,1,14.6,2.11l2.77.72,1.38.37,1.37.44,2.74.9c.91.34,1.81.71,2.71,1.09a42.87,42.87,0,0,1,10.37,6A30.5,30.5,0,0,1,72,56.16a68.06,68.06,0,0,0-4.12-8.24,30.08,30.08,0,0,0-7.39-7.3,42.69,42.69,0,0,0-10.34-5.15A91.63,91.63,0,0,0,39.2,32.33Z" transform="translate(-10.96 -8.5)"/><path class="cls-2" d="M63.89,50.44a44.52,44.52,0,0,0-10.11-5.27l-2.62-1-2.68-.83-1.34-.42-1.35-.34-2.7-.67a111.13,111.13,0,0,0-11-1.95c-.61-.1-1.22-.18-1.82-.25a14.58,14.58,0,0,0,1.38,2.58,12.56,12.56,0,0,0,4.84,4.17,17,17,0,0,0,2.92,1.08l3.15.88,12.61,3.71,6.28,1.92a19.17,19.17,0,0,1,6.09,3.76,39.74,39.74,0,0,1,8.59,12.11,36,36,0,0,0-4-10.65A28.44,28.44,0,0,0,63.89,50.44Z" transform="translate(-10.96 -8.5)"/><path class="cls-2" d="M121.7,67.39H114V23.45h16a18.61,18.61,0,0,1,8.29,1.76,13.3,13.3,0,0,1,5.59,4.93,13.47,13.47,0,0,1,2,7.31,13.44,13.44,0,0,1-2,7.31,13.21,13.21,0,0,1-5.59,4.92A18.88,18.88,0,0,1,130,51.43h-8.3Zm0-37.2V44.63H130a9.22,9.22,0,0,0,4.23-.91A6.52,6.52,0,0,0,137,41.17a7.33,7.33,0,0,0,1-3.78,7.08,7.08,0,0,0-1-3.76,6.65,6.65,0,0,0-2.78-2.54,9.28,9.28,0,0,0-4.2-.9Z" transform="translate(-10.96 -8.5)"/><path class="cls-2" d="M158.27,67.39h-7.12V23.74h7.12V36.46a13.86,13.86,0,0,1,6.15-1.38,15,15,0,0,1,6.91,1.54,11.66,11.66,0,0,1,4.75,4.24,11.26,11.26,0,0,1,1.7,6.08V67.39H170.6v-19A7.05,7.05,0,0,0,169,43.65a5.61,5.61,0,0,0-4.55-1.86,6.32,6.32,0,0,0-3.43.88A5.28,5.28,0,0,0,159,45a7.89,7.89,0,0,0-.69,3.34Z" transform="translate(-10.96 -8.5)"/><path class="cls-2" d="M191.37,66.88a15.45,15.45,0,0,1-5.11-3.38,15.65,15.65,0,0,1-3.35-5,17.47,17.47,0,0,1-1.35-6.92,17.81,17.81,0,0,1,1.9-8.08A15.4,15.4,0,0,1,189,37.29a15.88,15.88,0,0,1,8.75-2.36,16.63,16.63,0,0,1,6.57,1.28,15.4,15.4,0,0,1,5.18,3.54A15.88,15.88,0,0,1,212.85,45a17.9,17.9,0,0,1,1.2,6.56,17.47,17.47,0,0,1-1.35,6.92,15.67,15.67,0,0,1-3.37,5,15.18,15.18,0,0,1-5.13,3.4,17.48,17.48,0,0,1-12.83,0Zm11.16-7a8.7,8.7,0,0,0,2.95-3.62,11.71,11.71,0,0,0,1-4.75,11.9,11.9,0,0,0-1-4.79,8.66,8.66,0,0,0-2.95-3.63,8,8,0,0,0-4.74-1.39A8,8,0,0,0,193,43.12a8.55,8.55,0,0,0-2.93,3.63,12.05,12.05,0,0,0-1,4.79,11.54,11.54,0,0,0,1,4.75A8.6,8.6,0,0,0,193,59.91a8.79,8.79,0,0,0,9.49,0Z" transform="translate(-10.96 -8.5)"/><path class="cls-2" d="M226.41,67.39h-7.12V35.72h7.12v.74a13.92,13.92,0,0,1,6.15-1.38,15.09,15.09,0,0,1,6.92,1.54,11.63,11.63,0,0,1,4.74,4.24,11.17,11.17,0,0,1,1.7,6.08V67.39h-7.18v-19a7.1,7.1,0,0,0-1.56-4.73,5.64,5.64,0,0,0-4.56-1.86,6.32,6.32,0,0,0-3.43.88A5.4,5.4,0,0,0,227.1,45a7.89,7.89,0,0,0-.69,3.34Z" transform="translate(-10.96 -8.5)"/><path class="cls-2" d="M257.19,65.71a15.37,15.37,0,0,1-5.79-6.43,18.52,18.52,0,0,1,0-15.5,15.48,15.48,0,0,1,5.79-6.45,17.15,17.15,0,0,1,17.5,0,15.44,15.44,0,0,1,5.8,6.45,17.73,17.73,0,0,1,1.7,7.76l0,2.14v.53H257.55a9.76,9.76,0,0,0,2.92,5.08,7.73,7.73,0,0,0,5.46,2,8.11,8.11,0,0,0,4.65-1.39,9.53,9.53,0,0,0,3.15-3.65l.29-.59,6.41,3.84-.52.82a18.8,18.8,0,0,1-1.79,2.46,15.34,15.34,0,0,1-5.41,3.93,16.71,16.71,0,0,1-6.78,1.38A16.17,16.17,0,0,1,257.19,65.71Zm16.86-18a9.14,9.14,0,0,0-3-4.35,8.63,8.63,0,0,0-10.18,0,9.06,9.06,0,0,0-3,4.33Z" transform="translate(-10.96 -8.5)"/><path class="cls-2" d="M317.61,60.62v6.77H287.44V23.45h7.73V60.62Z" transform="translate(-10.96 -8.5)"/><path class="cls-2" d="M331.23,66.88a15.45,15.45,0,0,1-5.11-3.38,15.81,15.81,0,0,1-3.35-5,17.47,17.47,0,0,1-1.35-6.92,17.94,17.94,0,0,1,1.9-8.08,15.36,15.36,0,0,1,5.59-6.17,15.84,15.84,0,0,1,8.74-2.36,16.68,16.68,0,0,1,6.58,1.28,15.46,15.46,0,0,1,5.17,3.54A15.72,15.72,0,0,1,352.71,45a17.9,17.9,0,0,1,1.2,6.56,17.47,17.47,0,0,1-1.35,6.92,15.67,15.67,0,0,1-3.37,5,15.24,15.24,0,0,1-5.12,3.4,17.5,17.5,0,0,1-12.84,0Zm11.17-7a8.6,8.6,0,0,0,2.94-3.62,11.54,11.54,0,0,0,1-4.75,11.73,11.73,0,0,0-1-4.79,8.57,8.57,0,0,0-2.94-3.63,8.85,8.85,0,0,0-9.52,0A8.47,8.47,0,0,0,330,46.75a11.89,11.89,0,0,0-1,4.79,11.71,11.71,0,0,0,1,4.75,8.68,8.68,0,0,0,2.94,3.62,8.81,8.81,0,0,0,9.5,0Z" transform="translate(-10.96 -8.5)"/><path class="cls-2" d="M367.46,66.87a15.6,15.6,0,0,1-5.14-3.43,15.4,15.4,0,0,1-3.34-5.1,18.62,18.62,0,0,1,0-13.62,15.49,15.49,0,0,1,8.48-8.54,17.27,17.27,0,0,1,13.49.25,15.07,15.07,0,0,1,5.48,4.21,13.71,13.71,0,0,1,.91,1.24l.56.84.52.82L382,47.35l-.3-.55a9.89,9.89,0,0,0-3.18-3.69,7.82,7.82,0,0,0-4.61-1.38,8,8,0,0,0-4.77,1.39,8.47,8.47,0,0,0-2.93,3.63,11.89,11.89,0,0,0-1,4.79,11.71,11.71,0,0,0,1,4.75,8.68,8.68,0,0,0,2.94,3.62,8.05,8.05,0,0,0,4.75,1.39,8.17,8.17,0,0,0,4.66-1.39,9.08,9.08,0,0,0,3.13-3.65l.3-.59,6.41,3.84-.52.82-.56.84a13.17,13.17,0,0,1-.91,1.21A15,15,0,0,1,381,66.6a17.39,17.39,0,0,1-13.49.27Z" transform="translate(-10.96 -8.5)"/><path class="cls-2" d="M398.22,66.81a10.15,10.15,0,0,1-4.29-3.58,9.37,9.37,0,0,1-1.55-5.33,7.88,7.88,0,0,1,3-6.42A18.17,18.17,0,0,1,403,48l9.2-2a3.91,3.91,0,0,0-1.84-3.08,7.54,7.54,0,0,0-4.17-1.08,7.41,7.41,0,0,0-4,.89,3.29,3.29,0,0,0-1.44,2.94l0,.47,0,.53-7.44.09V45.65a9.75,9.75,0,0,1,2.36-6.72,11.79,11.79,0,0,1,6.9-3.5,17.68,17.68,0,0,1,3.52-.38A16,16,0,0,1,413,36.44a11,11,0,0,1,4.68,3.94,10.49,10.49,0,0,1,1.69,5.95V67.39h-7.15V65.46a13.46,13.46,0,0,1-3.71,1.92,12.84,12.84,0,0,1-4.17.69A14.53,14.53,0,0,1,398.22,66.81Zm10.34-6.58a7.3,7.3,0,0,0,2.74-3,8.76,8.76,0,0,0,.94-4v-.93L404.83,54a10.09,10.09,0,0,0-3.56,1.49,3,3,0,0,0-1.48,2.49,2.93,2.93,0,0,0,1.26,2.55,5.71,5.71,0,0,0,3.31.88A7.76,7.76,0,0,0,408.56,60.23Z" transform="translate(-10.96 -8.5)"/><path class="cls-2" d="M431.75,23.74V67.39h-7.12V23.74Z" transform="translate(-10.96 -8.5)"/><path class="cls-2" d="M444.15,23.74V67.39H437V23.74Z" transform="translate(-10.96 -8.5)"/><path class="cls-2" d="M482.47,35.72,464.13,79.43H456.3l5.54-13.77L449.42,35.72h8.08L466,56.17l8.41-20.45Z" transform="translate(-10.96 -8.5)"/></svg>